<svg xmlns="http://www.w3.org/2000/svg" xmlns:xlink="http://www.w3.org/1999/xlink" version="1.1" width="1000" height="1000" viewBox="0 0 1000 1000" xml:space="preserve">
<desc>Created with Fabric.js 3.5.0</desc>
<defs>
</defs>
<rect x="0" y="0" width="100%" height="100%" fill="rgba(0,0,0,0)"/>
<g transform="matrix(30.7688 0 0 30.7688 499.9994 499.9994)" id="741928">
<linearGradient id="SVGID_3" gradientUnits="userSpaceOnUse" gradientTransform="matrix(1 0 0 1 0 0)" x1="15" y1="3" x2="15" y2="33">
<stop offset="0%" style="stop-color:rgb(135,126,255);stop-opacity: 1"/>
<stop offset="46.1458%" style="stop-color:rgb(104,93,255);stop-opacity: 1"/>
<stop offset="100%" style="stop-color:rgb(49,33,255);stop-opacity: 1"/>
</linearGradient>
<path style="stroke: none; stroke-width: 1; stroke-dasharray: none; stroke-linecap: butt; stroke-dashoffset: 0; stroke-linejoin: miter; stroke-miterlimit: 4; is-custom-font: none; font-file-url: none; fill: url(#SVGID_3); fill-rule: evenodd; opacity: 1;" transform=" translate(-15, -18)" d="M 27.8333 18 C 27.8333 25.0877 22.0877 30.8333 15 30.8333 C 7.91234 30.8333 2.16666 25.0877 2.16666 18 C 2.16666 10.9123 7.91234 5.16666 15 5.16666 C 22.0877 5.16666 27.8333 10.9123 27.8333 18 Z M 30 18 C 30 26.2843 23.2843 33 15 33 C 6.71573 33 0 26.2843 0 18 C 0 9.71573 6.71573 3 15 3 C 23.2843 3 30 9.71573 30 18 Z M 23.2759 11.2759 C 23.2759 12.1329 22.5812 12.8276 21.7242 12.8276 C 20.8672 12.8276 20.1725 12.1329 20.1725 11.2759 C 20.1725 10.4189 20.8672 9.72418 21.7242 9.72418 C 22.5812 9.72418 23.2759 10.4189 23.2759 11.2759 Z M 10.4879 19.209 C 11.1556 21.7009 13.717 23.1797 16.2089 22.512 C 18.7008 21.8443 20.1796 19.2829 19.5119 16.791 C 18.8442 14.2991 16.2828 12.8203 13.7909 13.488 C 11.299 14.1557 9.82015 16.7171 10.4879 19.209 Z M 8.39503 19.7698 C 9.37244 23.4175 13.1219 25.5823 16.7696 24.6049 C 20.4174 23.6274 22.5821 19.878 21.6047 16.2302 C 20.6273 12.5825 16.8779 10.4177 13.2301 11.3952 C 9.58236 12.3726 7.41762 16.122 8.39503 19.7698 Z" stroke-linecap="round"/>
</g>
</svg>