<svg xmlns="http://www.w3.org/2000/svg" xmlns:xlink="http://www.w3.org/1999/xlink" version="1.1" width="1000" height="1000" viewBox="0 0 1000 1000" xml:space="preserve">
<desc>Created with Fabric.js 3.5.0</desc>
<defs>
</defs>
<rect x="0" y="0" width="100%" height="100%" fill="rgba(255,255,255,0)"/>
<g transform="matrix(6.4913 0 0 6.4913 500.0002 500.0002)" id="196028">
<path style="stroke: none; stroke-width: 1; stroke-dasharray: none; stroke-linecap: butt; stroke-dashoffset: 0; stroke-linejoin: miter; stroke-miterlimit: 4; is-custom-font: none; font-file-url: none; fill: rgb(255,255,255); fill-rule: nonzero; opacity: 1;" transform=" translate(-49.9998, -46.7892)" d="M 89.413 36.746 H 60.73 V 9.908 c 0 0 0.264 -10.01 -10.295 -9.907 C 39.876 0.104 39.267 9.908 39.267 9.908 v 26.838 H 10.586 c 0 0 -10.538 0.046 -10.586 9.907 c -0.05 9.862 10.586 10.178 10.586 10.178 h 28.681 v 26.84 c 0 0 0.049 9.861 10.587 9.907 c 10.539 0.046 10.876 -9.907 10.876 -9.907 v -26.84 h 28.683 c 0 0 10.697 0.245 10.586 -9.636 C 99.888 37.315 89.413 36.746 89.413 36.746 z" stroke-linecap="round"/>
</g>
</svg>